# xmcd
#
# Track frame offsets:
#	150
#	17033
#	29248
#	42321
#	53469
#	63984
#	82425
#	109142
#	120086
#	131146
#	153917
#
# Disc length: 2204 seconds
#
# Revision: 1
# Processed by: cddbd v1.5.2PL0 Copyright (c) Steve Scherf et al.
# Submitted via: audiograbber 1.83.01
#
DISCID=91089a0b
DTITLE=The Bottle Rockets - South Broadway Athlettic Club
DYEAR=2014
DGENRE=Country
TTITLE0=Monday ( Everytime I Turn Around )
TTITLE1=Big Lotsa Love
TTITLE2=I Don't Wanna Know
TTITLE3=Big Fat Nuthin'
TTITLE4=Dog
TTITLE5=Something Good
TTITLE6=Building Chryslers
TTITLE7=Smile
TTITLE8=XOYOU
TTITLE9=Ship It On the Frisco
TTITLE10=Shape Of A Wheel
EXTD=
EXTT0=
EXTT1=
EXTT2=
EXTT3=
EXTT4=
EXTT5=
EXTT6=
EXTT7=
EXTT8=
EXTT9=
EXTT10=
PLAYORDER=
